<svg width="60" height="60" viewBox="0 0 60 60" fill="none" xmlns="http://www.w3.org/2000/svg">
<g clip-path="url(#clip0_268_1476)">
<mask id="mask0_268_1476" style="mask-type:luminance" maskUnits="userSpaceOnUse" x="0" y="0" width="60" height="60">
<path d="M60 30C60 13.4315 46.5685 0 30 0C13.4315 0 0 13.4315 0 30C0 46.5685 13.4315 60 30 60C46.5685 60 60 46.5685 60 30Z" fill="white"/>
</mask>
<g mask="url(#mask0_268_1476)">
<path d="M60 0H0V60H60V0Z" fill="#29206A"/>
<path d="M33.9312 75.5411L70.473 59.2716C75.5184 57.0253 77.7874 51.1142 75.5411 46.0688L59.2716 9.527C57.0253 4.48163 51.1142 2.21257 46.0688 4.45891L9.527 20.7284C4.48162 22.9747 2.21256 28.8858 4.45891 33.9312L20.7284 70.473C22.9747 75.5184 28.8858 77.7874 33.9312 75.5411Z" fill="#328B29"/>
<path d="M28.5532 39.2752C28.7357 40.9025 29.782 42.3672 31.462 43.3471C33.1421 44.3269 35.3181 44.7416 37.5116 44.5C39.705 44.2584 41.7361 43.3802 43.158 42.0586C44.58 40.7371 45.2763 39.0805 45.0938 37.4531" fill="#1C1816"/>
<path d="M30.3331 32.2959C30.2317 31.3848 29.5971 30.7083 28.9158 30.7849C28.2345 30.8614 27.7644 31.662 27.8659 32.5731C27.9673 33.4841 28.6019 34.1606 29.2832 34.0841C29.9645 34.0075 30.4346 33.2069 30.3331 32.2959Z" fill="#1C1816"/>
<path d="M43.5934 30.9022C43.492 29.9911 42.8574 29.3146 42.1761 29.3911C41.4947 29.4677 41.0247 30.2683 41.1262 31.1793C41.2276 32.0904 41.8622 32.7669 42.5435 32.6904C43.2248 32.6138 43.6949 31.8132 43.5934 30.9022Z" fill="#1C1816"/>
</g>
</g>
<defs>
<clipPath id="clip0_268_1476">
<rect width="60" height="60" fill="white"/>
</clipPath>
</defs>
</svg>
