<svg width="60" height="60" viewBox="0 0 60 60" fill="none" xmlns="http://www.w3.org/2000/svg">
<g clip-path="url(#clip0_268_1471)">
<mask id="mask0_268_1471" style="mask-type:luminance" maskUnits="userSpaceOnUse" x="0" y="0" width="60" height="60">
<path d="M60 30C60 13.4315 46.5685 0 30 0C13.4315 0 0 13.4315 0 30C0 46.5685 13.4315 60 30 60C46.5685 60 60 46.5685 60 30Z" fill="white"/>
</mask>
<g mask="url(#mask0_268_1471)">
<path d="M60 0H0V60H60V0Z" fill="#1C1649"/>
<path d="M36.776 2.92288L6.76808 35.1024C2.62485 39.5455 2.86792 46.5061 7.31099 50.6493L39.4906 80.6572C43.9336 84.8005 50.8942 84.5574 55.0374 80.1143L85.0454 47.9348C89.1886 43.4917 88.9455 36.5311 84.5024 32.3879L52.3229 2.37997C47.8798 -1.76326 40.9192 -1.52019 36.776 2.92288Z" fill="#328B29"/>
<path d="M27.3587 38.726C27.2662 40.367 28.0531 41.9896 29.5463 43.2369C31.0395 44.4841 33.1167 45.2538 35.3209 45.3766C37.5251 45.4994 39.6758 44.9653 41.2998 43.8917C42.9239 42.8182 43.8883 41.2931 43.9808 39.6521" fill="white"/>
<path d="M26.935 30.3651C26.9864 29.4485 26.4719 28.6741 25.7858 28.6353C25.0996 28.5966 24.5017 29.3083 24.4503 30.2249C24.3988 31.1415 24.9133 31.916 25.5995 31.9547C26.2856 31.9934 26.8835 31.2818 26.935 30.3651Z" fill="white"/>
<path d="M46.9076 31.4119C46.959 30.4953 46.4445 29.7208 45.7584 29.6821C45.0722 29.6433 44.4743 30.355 44.4229 31.2716C44.3714 32.1882 44.8859 32.9627 45.5721 33.0014C46.2582 33.0401 46.8561 32.3285 46.9076 31.4119Z" fill="white"/>
</g>
</g>
<defs>
<clipPath id="clip0_268_1471">
<rect width="60" height="60" fill="white"/>
</clipPath>
</defs>
</svg>
