<svg width="60" height="60" viewBox="0 0 60 60" fill="none" xmlns="http://www.w3.org/2000/svg">
<g clip-path="url(#clip0_268_1473)">
<mask id="mask0_268_1473" style="mask-type:luminance" maskUnits="userSpaceOnUse" x="0" y="0" width="60" height="60">
<path d="M60 30C60 13.4315 46.5685 0 30 0C13.4315 0 0 13.4315 0 30C0 46.5685 13.4315 60 30 60C46.5685 60 60 46.5685 60 30Z" fill="white"/>
</mask>
<g mask="url(#mask0_268_1473)">
<path d="M60 0H0V60H60V0Z" fill="#A0E49A"/>
<path d="M69.6506 47.971C71.3834 28.1645 56.7318 10.7033 36.9252 8.97043C17.1186 7.23758 -0.34259 21.8892 -2.07544 41.6958C-3.80829 61.5024 10.8434 78.9636 30.65 80.6965C50.4566 82.4293 67.9177 67.7776 69.6506 47.971Z" fill="#877BDC"/>
<path d="M13.8008 40.7073C13.9453 42.3586 14.9585 43.8657 16.6175 44.8971C18.2765 45.9286 20.4454 46.3998 22.6472 46.2072C24.8489 46.0146 26.9031 45.1739 28.3578 43.87C29.8125 42.5662 30.5485 40.906 30.4041 39.2547" fill="#1C1816"/>
<path d="M17.0801 30.3822C16.9999 29.4652 16.3773 28.7706 15.6896 28.8308C15.0019 28.891 14.5094 29.6831 14.5896 30.6001C14.6698 31.517 15.2924 32.2116 15.9801 32.1514C16.6678 32.0913 17.1603 31.2991 17.0801 30.3822Z" fill="#1C1816"/>
<path d="M27.042 29.5106C26.9618 28.5936 26.3393 27.8991 25.6515 27.9592C24.9638 28.0194 24.4713 28.8115 24.5515 29.7285C24.6318 30.6455 25.2543 31.34 25.942 31.2799C26.6298 31.2197 27.1223 30.4276 27.042 29.5106Z" fill="#1C1816"/>
</g>
</g>
<defs>
<clipPath id="clip0_268_1473">
<rect width="60" height="60" fill="white"/>
</clipPath>
</defs>
</svg>
