<svg width="60" height="60" viewBox="0 0 60 60" fill="none" xmlns="http://www.w3.org/2000/svg">
<g clip-path="url(#clip0_268_1475)">
<mask id="mask0_268_1475" style="mask-type:luminance" maskUnits="userSpaceOnUse" x="0" y="0" width="60" height="60">
<path d="M60 30C60 13.4315 46.5685 0 30 0C13.4315 0 0 13.4315 0 30C0 46.5685 13.4315 60 30 60C46.5685 60 60 46.5685 60 30Z" fill="white"/>
</mask>
<g mask="url(#mask0_268_1475)">
<path d="M60 0H0V60H60V0Z" fill="#1A4916"/>
<path d="M6.83703 61.8697L50.1686 69.5102C56.1514 70.5652 61.8567 66.5703 62.9116 60.5875L70.5521 17.2559C71.607 11.2731 67.6122 5.56784 61.6294 4.51291L18.2978 -3.12761C12.315 -4.18255 6.60973 -0.187695 5.5548 5.79514L-2.08572 49.1267C-3.14066 55.1095 0.854193 60.8148 6.83703 61.8697Z" fill="#A39AE4"/>
<path d="M35 23.3333C38.3333 25 41.6667 25 45 23.3333" stroke="#1C1816" stroke-width="2.22222" stroke-linecap="round"/>
<path d="M35.8333 15C35.8333 14.0795 35.2737 13.3333 34.5833 13.3333C33.893 13.3333 33.3333 14.0795 33.3333 15C33.3333 15.9205 33.893 16.6667 34.5833 16.6667C35.2737 16.6667 35.8333 15.9205 35.8333 15Z" fill="#1C1816"/>
<path d="M45.8333 15C45.8333 14.0795 45.2737 13.3333 44.5833 13.3333C43.893 13.3333 43.3333 14.0795 43.3333 15C43.3333 15.9205 43.893 16.6667 44.5833 16.6667C45.2737 16.6667 45.8333 15.9205 45.8333 15Z" fill="#1C1816"/>
</g>
</g>
<defs>
<clipPath id="clip0_268_1475">
<rect width="60" height="60" fill="white"/>
</clipPath>
</defs>
</svg>
