<svg width="60" height="60" viewBox="0 0 60 60" fill="none" xmlns="http://www.w3.org/2000/svg">
<g clip-path="url(#clip0_268_1477)">
<mask id="mask0_268_1477" style="mask-type:luminance" maskUnits="userSpaceOnUse" x="0" y="0" width="60" height="60">
<path d="M60 30C60 13.4315 46.5685 0 30 0C13.4315 0 0 13.4315 0 30C0 46.5685 13.4315 60 30 60C46.5685 60 60 46.5685 60 30Z" fill="white"/>
</mask>
<g mask="url(#mask0_268_1477)">
<path d="M60 0H0V60H60V0Z" fill="#877BDC"/>
<path d="M82.0228 28.637L58.7063 -8.67715C55.487 -13.8292 48.7007 -15.3959 43.5487 -12.1766L6.23457 11.1399C1.08256 14.3592 -0.484181 21.1455 2.73515 26.2975L26.0516 63.6116C29.2709 68.7636 36.0572 70.3304 41.2092 67.111L78.5233 43.7946C83.6753 40.5753 85.2421 33.789 82.0228 28.637Z" fill="#266A20"/>
<path d="M31.2514 30.9384C34.3204 33.0527 37.6213 33.5166 41.1541 32.3301" stroke="white" stroke-width="1.66667" stroke-linecap="round"/>
<path d="M28.2851 22.1062C28.4132 21.1947 27.9628 20.3779 27.2792 20.2818C26.5956 20.1857 25.9375 20.8468 25.8094 21.7583C25.6813 22.6698 26.1317 23.4866 26.8153 23.5827C27.4989 23.6788 28.157 23.0177 28.2851 22.1062Z" fill="white"/>
<path d="M48.0904 24.8897C48.2185 23.9782 47.7682 23.1613 47.0846 23.0653C46.4009 22.9692 45.7429 23.6302 45.6148 24.5417C45.4867 25.4533 45.937 26.2701 46.6207 26.3662C47.3043 26.4622 47.9623 25.8012 48.0904 24.8897Z" fill="white"/>
</g>
</g>
<defs>
<clipPath id="clip0_268_1477">
<rect width="60" height="60" fill="white"/>
</clipPath>
</defs>
</svg>
