<svg width="60" height="60" viewBox="0 0 60 60" fill="none" xmlns="http://www.w3.org/2000/svg">
<g clip-path="url(#clip0_268_1472)">
<mask id="mask0_268_1472" style="mask-type:luminance" maskUnits="userSpaceOnUse" x="0" y="0" width="60" height="60">
<path d="M60 30C60 13.4315 46.5685 0 30 0C13.4315 0 0 13.4315 0 30C0 46.5685 13.4315 60 30 60C46.5685 60 60 46.5685 60 30Z" fill="white"/>
</mask>
<g mask="url(#mask0_268_1472)">
<path d="M60 0H0V60H60V0Z" fill="#29206A"/>
<path d="M26.5701 54.9589C43.1159 54.0918 55.826 39.9758 54.9589 23.4299C54.0918 6.88409 39.9758 -5.82601 23.4299 -4.95888C6.88409 -4.09175 -5.82601 10.0242 -4.95888 26.5701C-4.09175 43.1159 10.0242 55.826 26.5701 54.9589Z" fill="#83DC7B"/>
<path d="M13.1675 24.3782C16.2729 26.4387 19.5814 26.8449 23.093 25.5969" stroke="#1C1816" stroke-width="1.66667" stroke-linecap="round"/>
<path d="M11.4986 17.4566C11.6108 16.543 11.1462 15.7342 10.461 15.65C9.77581 15.5659 9.1294 16.2383 9.01722 17.1519C8.90504 18.0655 9.36958 18.8744 10.0548 18.9585C10.74 19.0426 11.3864 18.3702 11.4986 17.4566Z" fill="#1C1816"/>
<path d="M28.041 19.4878C28.1532 18.5741 27.6887 17.7653 27.0035 17.6812C26.3182 17.597 25.6718 18.2695 25.5597 19.1831C25.4475 20.0967 25.912 20.9055 26.5972 20.9897C27.2824 21.0738 27.9288 20.4014 28.041 19.4878Z" fill="#1C1816"/>
</g>
</g>
<defs>
<clipPath id="clip0_268_1472">
<rect width="60" height="60" fill="white"/>
</clipPath>
</defs>
</svg>
