<svg width="60" height="60" viewBox="0 0 60 60" fill="none" xmlns="http://www.w3.org/2000/svg">
<g clip-path="url(#clip0_268_1470)">
<mask id="mask0_268_1470" style="mask-type:luminance" maskUnits="userSpaceOnUse" x="0" y="0" width="60" height="60">
<path d="M60 30C60 13.4315 46.5685 0 30 0C13.4315 0 0 13.4315 0 30C0 46.5685 13.4315 60 30 60C46.5685 60 60 46.5685 60 30Z" fill="white"/>
</mask>
<g mask="url(#mask0_268_1470)">
<path d="M60 0H0V60H60V0Z" fill="#1C1816"/>
<path d="M12.1658 72.0196L60.0489 68.6713C66.6601 68.209 71.6449 62.4747 71.1825 55.8635L67.8342 7.98038C67.3719 1.3691 61.6377 -3.61562 55.0264 -3.15331L7.1433 0.194996C0.532029 0.657301 -4.45269 6.39157 -3.99039 13.0028L-0.642076 60.8859C-0.179771 67.4972 5.5545 72.4819 12.1658 72.0196Z" fill="#A0E49A"/>
<path d="M22.235 39.257C22.4174 40.8843 23.4638 42.349 25.1438 43.3288C26.8238 44.3086 28.9999 44.7234 31.1933 44.4817C33.3867 44.2401 35.4178 43.3619 36.8398 42.0404C38.2617 40.7189 38.9581 39.0622 38.7756 37.4349" fill="#1C1816"/>
<path d="M23.6665 28.9626C23.565 28.0515 22.9304 27.375 22.2491 27.4515C21.5678 27.5281 21.0977 28.3287 21.1992 29.2397C21.3007 30.1508 21.9352 30.8273 22.6165 30.7508C23.2979 30.6742 23.7679 29.8736 23.6665 28.9626Z" fill="#1C1816"/>
<path d="M36.9268 27.5688C36.8253 26.6578 36.1907 25.9813 35.5094 26.0578C34.8281 26.1344 34.358 26.935 34.4595 27.846C34.5609 28.7571 35.1955 29.4336 35.8768 29.357C36.5582 29.2805 37.0282 28.4799 36.9268 27.5688Z" fill="#1C1816"/>
</g>
</g>
<defs>
<clipPath id="clip0_268_1470">
<rect width="60" height="60" fill="white"/>
</clipPath>
</defs>
</svg>
