<svg width="60" height="60" viewBox="0 0 60 60" fill="none" xmlns="http://www.w3.org/2000/svg">
<g clip-path="url(#clip0_268_1474)">
<mask id="mask0_268_1474" style="mask-type:luminance" maskUnits="userSpaceOnUse" x="0" y="0" width="60" height="60">
<path d="M60 30C60 13.4315 46.5685 0 30 0C13.4315 0 0 13.4315 0 30C0 46.5685 13.4315 60 30 60C46.5685 60 60 46.5685 60 30Z" fill="white"/>
</mask>
<g mask="url(#mask0_268_1474)">
<path d="M60 0H0V60H60V0Z" fill="#1C1649"/>
<path d="M43.085 63.6717C59.4659 55.6822 66.2684 35.9261 58.2789 19.5452C50.2894 3.16437 30.5334 -3.6382 14.1525 4.35129C-2.22839 12.3408 -9.03096 32.0969 -1.04147 48.4777C6.94802 64.8586 26.7041 71.6612 43.085 63.6717Z" fill="#1C1649"/>
<path d="M24.7797 26.3098C27.9886 28.2049 31.3138 28.4374 34.7553 27.0073" stroke="white" stroke-width="1.66667" stroke-linecap="round"/>
<path d="M19.5418 17.5898C19.606 16.6716 19.0998 15.8882 18.4111 15.84C17.7225 15.7919 17.1121 16.4972 17.0479 17.4154C16.9837 18.3337 17.4899 19.1171 18.1786 19.1652C18.8673 19.2134 19.4776 18.508 19.5418 17.5898Z" fill="white"/>
<path d="M42.8183 19.2175C42.8825 18.2992 42.3763 17.5158 41.6876 17.4677C40.999 17.4195 40.3886 18.1248 40.3244 19.0431C40.2602 19.9613 40.7664 20.7447 41.4551 20.7929C42.1438 20.841 42.7541 20.1357 42.8183 19.2175Z" fill="white"/>
</g>
</g>
<defs>
<clipPath id="clip0_268_1474">
<rect width="60" height="60" fill="white"/>
</clipPath>
</defs>
</svg>
