<svg width="24" height="24" viewBox="0 0 24 24" fill="none" xmlns="http://www.w3.org/2000/svg">
<path d="M20.25 6.37498H17.8181C18.1661 5.86882 18.3596 5.27247 18.375 4.65842C18.3889 4.19064 18.307 3.72496 18.1343 3.28999C17.9617 2.85501 17.7019 2.45993 17.371 2.12901C17.0401 1.7981 16.645 1.53833 16.21 1.36567C15.775 1.19301 15.3093 1.1111 14.8416 1.12498C14.4095 1.13421 13.984 1.23266 13.5918 1.41416C13.1996 1.59565 12.8492 1.85628 12.5625 2.17967C12.3511 2.42087 12.1627 2.68139 12 2.9578C11.8373 2.68139 11.6489 2.42087 11.4375 2.17967C11.1508 1.85628 10.8004 1.59565 10.4082 1.41416C10.016 1.23266 9.5905 1.13421 9.15844 1.12498C8.69066 1.1111 8.22497 1.19301 7.79 1.36567C7.35503 1.53833 6.95995 1.7981 6.62903 2.12901C6.29811 2.45993 6.03834 2.85501 5.86568 3.28999C5.69303 3.72496 5.61112 4.19064 5.625 4.65842C5.64043 5.27247 5.83389 5.86882 6.18188 6.37498H3.75C3.25272 6.37498 2.77581 6.57253 2.42417 6.92416C2.07254 7.27579 1.875 7.7527 1.875 8.24998V11.25C1.87491 11.6822 2.02417 12.1012 2.29751 12.4361C2.57085 12.7709 2.95149 13.001 3.375 13.0875V18.75C3.375 19.2473 3.57254 19.7242 3.92417 20.0758C4.27581 20.4274 4.75272 20.625 5.25 20.625H18.75C19.2473 20.625 19.7242 20.4274 20.0758 20.0758C20.4275 19.7242 20.625 19.2473 20.625 18.75V13.0875C21.0485 13.001 21.4291 12.7709 21.7025 12.4361C21.9758 12.1012 22.1251 11.6822 22.125 11.25V8.24998C22.125 7.7527 21.9275 7.27579 21.5758 6.92416C21.2242 6.57253 20.7473 6.37498 20.25 6.37498ZM19.875 10.875H13.125V8.62498H19.875V10.875ZM14.25 3.67217C14.333 3.58007 14.4341 3.50612 14.5471 3.45497C14.66 3.40383 14.7823 3.3766 14.9062 3.37498H14.9391C15.0977 3.37454 15.2548 3.406 15.4011 3.4675C15.5473 3.52901 15.6797 3.6193 15.7903 3.733C15.901 3.8467 15.9876 3.9815 16.0451 4.12937C16.1026 4.27723 16.1298 4.43516 16.125 4.59373C16.1234 4.7177 16.0962 4.83999 16.045 4.95293C15.9939 5.06586 15.9199 5.167 15.8278 5.24998C15.1809 5.82373 14.1169 6.11811 13.2375 6.25873C13.3781 5.38311 13.6725 4.31905 14.25 3.67217ZM8.22187 3.72186C8.44441 3.50171 8.74417 3.37723 9.05719 3.37498H9.09375C9.21772 3.3766 9.34001 3.40383 9.45294 3.45497C9.56588 3.50612 9.66702 3.58007 9.75 3.67217C10.3237 4.31905 10.6181 5.38217 10.7578 6.26061C9.88594 6.11905 8.8125 5.82467 8.17219 5.24998C8.08008 5.167 8.00613 5.06586 7.95499 4.95293C7.90385 4.83999 7.87661 4.7177 7.875 4.59373C7.87085 4.4325 7.89946 4.27211 7.95908 4.12225C8.0187 3.97238 8.1081 3.83618 8.22187 3.72186ZM4.125 8.62498H10.875V10.875H4.125V8.62498ZM5.625 13.125H10.875V18.375H5.625V13.125ZM13.125 18.375V13.125H18.375V18.375H13.125Z" fill="#1C1816"/>
</svg>
