<svg width="32" height="32" viewBox="0 0 32 32" fill="none" xmlns="http://www.w3.org/2000/svg">
<path d="M24.4999 17C24.4999 17.3956 24.3826 17.7822 24.1629 18.1111C23.9431 18.44 23.6308 18.6964 23.2653 18.8478C22.8999 18.9991 22.4977 19.0387 22.1098 18.9616C21.7218 18.8844 21.3654 18.6939 21.0857 18.4142C20.806 18.1345 20.6155 17.7781 20.5384 17.3902C20.4612 17.0022 20.5008 16.6001 20.6522 16.2346C20.8036 15.8692 21.0599 15.5568 21.3888 15.3371C21.7177 15.1173 22.1044 15 22.4999 15C23.0304 15 23.5391 15.2107 23.9142 15.5858C24.2892 15.9609 24.4999 16.4696 24.4999 17ZM29.4999 12.5V22.5C29.4999 23.5609 29.0785 24.5783 28.3284 25.3284C27.5782 26.0786 26.5608 26.5 25.4999 26.5H7.49994C6.43908 26.5 5.42166 26.0786 4.67152 25.3284C3.92137 24.5783 3.49994 23.5609 3.49994 22.5V7.615C3.48456 7.08012 3.57665 6.54758 3.77077 6.04893C3.96489 5.55027 4.25709 5.09564 4.63007 4.71194C5.00305 4.32823 5.44922 4.02327 5.94217 3.8151C6.43513 3.60693 6.96484 3.49978 7.49994 3.5H23.9999C24.3978 3.5 24.7793 3.65804 25.0606 3.93934C25.3419 4.22064 25.4999 4.60218 25.4999 5C25.4999 5.39783 25.3419 5.77936 25.0606 6.06066C24.7793 6.34197 24.3978 6.5 23.9999 6.5H7.49994C7.36584 6.49993 7.2331 6.52683 7.1096 6.57911C6.98611 6.63138 6.87439 6.70796 6.78109 6.80429C6.6878 6.90062 6.61483 7.01473 6.56653 7.13983C6.51823 7.26493 6.49559 7.39847 6.49994 7.5325V7.5425C6.52095 7.80727 6.64246 8.05398 6.83956 8.23202C7.03666 8.41006 7.29441 8.50594 7.55994 8.5H25.4999C26.5608 8.5 27.5782 8.92143 28.3284 9.67157C29.0785 10.4217 29.4999 11.4391 29.4999 12.5ZM26.4999 12.5C26.4999 12.2348 26.3946 11.9804 26.2071 11.7929C26.0195 11.6054 25.7652 11.5 25.4999 11.5H7.55994C7.20231 11.5002 6.84612 11.4548 6.49994 11.365V22.5C6.49994 22.7652 6.6053 23.0196 6.79284 23.2071C6.98037 23.3946 7.23473 23.5 7.49994 23.5H25.4999C25.7652 23.5 26.0195 23.3946 26.2071 23.2071C26.3946 23.0196 26.4999 22.7652 26.4999 22.5V12.5Z" fill="#1C1816"/>
</svg>
